<mxfile host="app.diagrams.net" modified="2023-12-17T06:08:25.033Z" agent="Mozilla/5.0 (X11; Ubuntu; Linux x86_64; rv:120.0) Gecko/20100101 Firefox/120.0" etag="tnNvVDnK2ajVYOvQOCzE" version="22.1.11" type="github">
  <diagram name="Page-1" id="jyJW4qe16mHeRe6o0_ro">
    <mxGraphModel dx="1374" dy="763" grid="1" gridSize="10" guides="1" tooltips="1" connect="1" arrows="1" fold="1" page="1" pageScale="1" pageWidth="1169" pageHeight="827" math="0" shadow="0">
      <root>
        <mxCell id="0" />
        <mxCell id="1" parent="0" />
        <mxCell id="ClCTwTJOBFiZKTtQUj_5-45" value="" style="rounded=0;whiteSpace=wrap;html=1;fontSize=16;fillColor=none;dashed=1;strokeColor=default;glass=0;shadow=0;" vertex="1" parent="1">
          <mxGeometry x="390" y="80" width="300" height="290" as="geometry" />
        </mxCell>
        <mxCell id="ClCTwTJOBFiZKTtQUj_5-2" value="" style="rounded=0;whiteSpace=wrap;html=1;fontSize=16;fillColor=none;dashed=1;strokeColor=default;glass=0;shadow=0;" vertex="1" parent="1">
          <mxGeometry x="710" y="79" width="380" height="681" as="geometry" />
        </mxCell>
        <mxCell id="ClCTwTJOBFiZKTtQUj_5-3" value="" style="rounded=0;whiteSpace=wrap;html=1;fontSize=16;fillColor=none;dashed=1;strokeColor=default;glass=0;shadow=0;" vertex="1" parent="1">
          <mxGeometry x="30" y="80" width="340" height="370" as="geometry" />
        </mxCell>
        <mxCell id="ClCTwTJOBFiZKTtQUj_5-4" value="&lt;div style=&quot;font-size: 13px;&quot;&gt;&lt;div style=&quot;color: rgb(204, 204, 204); font-family: &amp;quot;Droid Sans Mono&amp;quot;, &amp;quot;monospace&amp;quot;, monospace; font-weight: normal; line-height: 19px;&quot;&gt;&lt;div&gt;&lt;pre&gt;&lt;font style=&quot;font-size: 12px;&quot; color=&quot;#000000&quot;&gt;MakeSpotifyRequest()&lt;/font&gt;&lt;/pre&gt;&lt;/div&gt;&lt;/div&gt;&lt;/div&gt;" style="rounded=0;whiteSpace=wrap;html=1;labelBackgroundColor=none;align=left;spacingLeft=4;fillColor=none;" vertex="1" parent="1">
          <mxGeometry x="840" y="400" width="160" height="40" as="geometry" />
        </mxCell>
        <mxCell id="ClCTwTJOBFiZKTtQUj_5-5" value="&lt;div style=&quot;font-size: 13px;&quot;&gt;&lt;div style=&quot;color: rgb(204, 204, 204); font-family: &amp;quot;Droid Sans Mono&amp;quot;, &amp;quot;monospace&amp;quot;, monospace; font-weight: normal; line-height: 19px;&quot;&gt;&lt;div&gt;&lt;pre&gt;&lt;font style=&quot;font-size: 12px;&quot; color=&quot;#000000&quot;&gt;Spotify_RenewAccessToken()&lt;/font&gt;&lt;/pre&gt;&lt;/div&gt;&lt;/div&gt;&lt;/div&gt;" style="rounded=0;whiteSpace=wrap;html=1;labelBackgroundColor=none;align=left;spacingLeft=4;fillColor=none;" vertex="1" parent="1">
          <mxGeometry x="840" y="600" width="200" height="40" as="geometry" />
        </mxCell>
        <mxCell id="ClCTwTJOBFiZKTtQUj_5-6" style="edgeStyle=orthogonalEdgeStyle;rounded=0;orthogonalLoop=1;jettySize=auto;html=1;entryX=0;entryY=0.5;entryDx=0;entryDy=0;endArrow=classicThin;endFill=1;startArrow=classicThin;startFill=1;labelBackgroundColor=none;fontColor=default;" edge="1" parent="1" source="ClCTwTJOBFiZKTtQUj_5-13" target="ClCTwTJOBFiZKTtQUj_5-37">
          <mxGeometry relative="1" as="geometry" />
        </mxCell>
        <mxCell id="ClCTwTJOBFiZKTtQUj_5-7" style="edgeStyle=orthogonalEdgeStyle;rounded=0;orthogonalLoop=1;jettySize=auto;html=1;entryX=0;entryY=0.5;entryDx=0;entryDy=0;endArrow=classicThin;endFill=1;startArrow=classicThin;startFill=1;labelBackgroundColor=none;fontColor=default;" edge="1" parent="1" source="ClCTwTJOBFiZKTtQUj_5-13" target="ClCTwTJOBFiZKTtQUj_5-4">
          <mxGeometry relative="1" as="geometry" />
        </mxCell>
        <mxCell id="ClCTwTJOBFiZKTtQUj_5-8" style="edgeStyle=orthogonalEdgeStyle;rounded=0;orthogonalLoop=1;jettySize=auto;html=1;entryX=0;entryY=0.5;entryDx=0;entryDy=0;fontSize=12;startSize=8;endSize=8;startArrow=classicThin;startFill=1;endArrow=classicThin;endFill=1;" edge="1" parent="1" source="ClCTwTJOBFiZKTtQUj_5-13" target="ClCTwTJOBFiZKTtQUj_5-5">
          <mxGeometry relative="1" as="geometry" />
        </mxCell>
        <mxCell id="ClCTwTJOBFiZKTtQUj_5-9" style="edgeStyle=orthogonalEdgeStyle;rounded=0;orthogonalLoop=1;jettySize=auto;html=1;entryX=0;entryY=0.5;entryDx=0;entryDy=0;fontSize=12;startSize=8;endSize=8;endArrow=classicThin;endFill=1;startArrow=classicThin;startFill=1;" edge="1" parent="1" source="ClCTwTJOBFiZKTtQUj_5-13" target="ClCTwTJOBFiZKTtQUj_5-35">
          <mxGeometry relative="1" as="geometry" />
        </mxCell>
        <mxCell id="ClCTwTJOBFiZKTtQUj_5-10" style="edgeStyle=orthogonalEdgeStyle;rounded=0;orthogonalLoop=1;jettySize=auto;html=1;entryX=0;entryY=0.5;entryDx=0;entryDy=0;" edge="1" parent="1" source="ClCTwTJOBFiZKTtQUj_5-13" target="ClCTwTJOBFiZKTtQUj_5-47">
          <mxGeometry relative="1" as="geometry" />
        </mxCell>
        <mxCell id="ClCTwTJOBFiZKTtQUj_5-11" style="edgeStyle=orthogonalEdgeStyle;rounded=0;orthogonalLoop=1;jettySize=auto;html=1;entryX=0;entryY=0.5;entryDx=0;entryDy=0;" edge="1" parent="1" source="ClCTwTJOBFiZKTtQUj_5-13" target="ClCTwTJOBFiZKTtQUj_5-48">
          <mxGeometry relative="1" as="geometry" />
        </mxCell>
        <mxCell id="ClCTwTJOBFiZKTtQUj_5-12" style="edgeStyle=orthogonalEdgeStyle;rounded=0;orthogonalLoop=1;jettySize=auto;html=1;entryX=0;entryY=0.5;entryDx=0;entryDy=0;" edge="1" parent="1" source="ClCTwTJOBFiZKTtQUj_5-13" target="ClCTwTJOBFiZKTtQUj_5-49">
          <mxGeometry relative="1" as="geometry" />
        </mxCell>
        <mxCell id="ClCTwTJOBFiZKTtQUj_5-13" value="&lt;pre&gt;InterfaceHandler&lt;/pre&gt;" style="rounded=0;whiteSpace=wrap;html=1;labelBackgroundColor=none;fillColor=none;" vertex="1" parent="1">
          <mxGeometry x="720" y="119" width="160" height="40" as="geometry" />
        </mxCell>
        <mxCell id="ClCTwTJOBFiZKTtQUj_5-14" value="&lt;div style=&quot;font-size: 13px;&quot;&gt;&lt;div style=&quot;color: rgb(204, 204, 204); font-family: &amp;quot;Droid Sans Mono&amp;quot;, &amp;quot;monospace&amp;quot;, monospace; font-weight: normal; line-height: 19px;&quot;&gt;&lt;div&gt;&lt;pre&gt;&lt;font style=&quot;font-size: 12px;&quot; color=&quot;#000000&quot;&gt;Spotify_MainTask()&lt;/font&gt;&lt;/pre&gt;&lt;/div&gt;&lt;/div&gt;&lt;/div&gt;" style="rounded=0;whiteSpace=wrap;html=1;labelBackgroundColor=none;spacingLeft=4;align=left;fillColor=none;" vertex="1" parent="1">
          <mxGeometry x="160" y="200" width="160" height="40" as="geometry" />
        </mxCell>
        <mxCell id="ClCTwTJOBFiZKTtQUj_5-15" value="&lt;div style=&quot;font-size: 13px;&quot;&gt;&lt;div style=&quot;color: rgb(204, 204, 204); font-family: &amp;quot;Droid Sans Mono&amp;quot;, &amp;quot;monospace&amp;quot;, monospace; font-weight: normal; line-height: 19px;&quot;&gt;&lt;div&gt;&lt;pre&gt;&lt;font style=&quot;font-size: 12px;&quot; color=&quot;#000000&quot;&gt;Spotify_GetToken()&lt;/font&gt;&lt;/pre&gt;&lt;/div&gt;&lt;/div&gt;&lt;/div&gt;" style="rounded=0;whiteSpace=wrap;html=1;labelBackgroundColor=none;spacingLeft=4;align=left;fillColor=none;" vertex="1" parent="1">
          <mxGeometry x="160" y="250" width="160" height="37" as="geometry" />
        </mxCell>
        <mxCell id="ClCTwTJOBFiZKTtQUj_5-16" value="&lt;div&gt;&lt;div style=&quot;color: rgb(204, 204, 204); font-family: &amp;quot;Droid Sans Mono&amp;quot;, &amp;quot;monospace&amp;quot;, monospace; font-weight: normal; line-height: 19px;&quot;&gt;&lt;div&gt;&lt;pre&gt;&lt;font color=&quot;#000000&quot;&gt;Spotify_RenewAccessToken&lt;/font&gt;&lt;font style=&quot;font-size: 12px;&quot; color=&quot;#000000&quot;&gt;()&lt;/font&gt;&lt;/pre&gt;&lt;/div&gt;&lt;/div&gt;&lt;/div&gt;" style="rounded=0;whiteSpace=wrap;html=1;labelBackgroundColor=none;spacingLeft=4;align=left;fillColor=none;" vertex="1" parent="1">
          <mxGeometry x="160" y="300" width="200" height="40" as="geometry" />
        </mxCell>
        <mxCell id="ClCTwTJOBFiZKTtQUj_5-17" value="&lt;div style=&quot;font-size: 13px;&quot;&gt;&lt;div style=&quot;color: rgb(204, 204, 204); font-family: &amp;quot;Droid Sans Mono&amp;quot;, &amp;quot;monospace&amp;quot;, monospace; font-weight: normal; line-height: 19px;&quot;&gt;&lt;div&gt;&lt;pre&gt;&lt;font style=&quot;font-size: 12px;&quot; color=&quot;#000000&quot;&gt;Spotify_SendCommand()&lt;/font&gt;&lt;/pre&gt;&lt;/div&gt;&lt;/div&gt;&lt;/div&gt;" style="rounded=0;whiteSpace=wrap;html=1;labelBackgroundColor=none;spacingLeft=4;align=left;fillColor=none;" vertex="1" parent="1">
          <mxGeometry x="160" y="400" width="200" height="40" as="geometry" />
        </mxCell>
        <mxCell id="ClCTwTJOBFiZKTtQUj_5-18" value="&lt;pre&gt;&lt;font style=&quot;font-size: 12px;&quot; color=&quot;#000000&quot;&gt;Spotify_IsTokenValid()&lt;/font&gt;&lt;/pre&gt;" style="rounded=0;whiteSpace=wrap;html=1;labelBackgroundColor=none;spacingLeft=4;align=left;fillColor=none;" vertex="1" parent="1">
          <mxGeometry x="160" y="350" width="200" height="40" as="geometry" />
        </mxCell>
        <mxCell id="ClCTwTJOBFiZKTtQUj_5-19" style="edgeStyle=orthogonalEdgeStyle;rounded=0;orthogonalLoop=1;jettySize=auto;html=1;entryX=0;entryY=0.5;entryDx=0;entryDy=0;fontSize=12;startSize=8;endSize=8;startArrow=classicThin;startFill=1;endArrow=classicThin;endFill=1;" edge="1" parent="1" source="ClCTwTJOBFiZKTtQUj_5-24" target="ClCTwTJOBFiZKTtQUj_5-14">
          <mxGeometry relative="1" as="geometry" />
        </mxCell>
        <mxCell id="ClCTwTJOBFiZKTtQUj_5-20" style="edgeStyle=orthogonalEdgeStyle;rounded=0;orthogonalLoop=1;jettySize=auto;html=1;entryX=0;entryY=0.5;entryDx=0;entryDy=0;fontSize=12;startSize=8;endSize=8;startArrow=classicThin;startFill=1;endArrow=classicThin;endFill=1;" edge="1" parent="1" source="ClCTwTJOBFiZKTtQUj_5-24" target="ClCTwTJOBFiZKTtQUj_5-15">
          <mxGeometry relative="1" as="geometry" />
        </mxCell>
        <mxCell id="ClCTwTJOBFiZKTtQUj_5-21" style="edgeStyle=orthogonalEdgeStyle;rounded=0;orthogonalLoop=1;jettySize=auto;html=1;entryX=0;entryY=0.5;entryDx=0;entryDy=0;fontSize=12;startSize=8;endSize=8;startArrow=classicThin;startFill=1;endArrow=classicThin;endFill=1;" edge="1" parent="1" source="ClCTwTJOBFiZKTtQUj_5-24" target="ClCTwTJOBFiZKTtQUj_5-16">
          <mxGeometry relative="1" as="geometry" />
        </mxCell>
        <mxCell id="ClCTwTJOBFiZKTtQUj_5-22" style="edgeStyle=orthogonalEdgeStyle;rounded=0;orthogonalLoop=1;jettySize=auto;html=1;entryX=0;entryY=0.5;entryDx=0;entryDy=0;fontSize=12;startSize=8;endSize=8;startArrow=classicThin;startFill=1;endArrow=classicThin;endFill=1;" edge="1" parent="1" source="ClCTwTJOBFiZKTtQUj_5-24" target="ClCTwTJOBFiZKTtQUj_5-17">
          <mxGeometry relative="1" as="geometry" />
        </mxCell>
        <mxCell id="ClCTwTJOBFiZKTtQUj_5-23" style="edgeStyle=orthogonalEdgeStyle;rounded=0;orthogonalLoop=1;jettySize=auto;html=1;entryX=0;entryY=0.5;entryDx=0;entryDy=0;fontSize=12;startSize=8;endSize=8;startArrow=classicThin;startFill=1;endArrow=classicThin;endFill=1;" edge="1" parent="1" source="ClCTwTJOBFiZKTtQUj_5-24" target="ClCTwTJOBFiZKTtQUj_5-18">
          <mxGeometry relative="1" as="geometry" />
        </mxCell>
        <mxCell id="ClCTwTJOBFiZKTtQUj_5-24" value="&lt;pre&gt;PrivateHandler&lt;/pre&gt;" style="rounded=0;whiteSpace=wrap;html=1;labelBackgroundColor=none;fillColor=none;" vertex="1" parent="1">
          <mxGeometry x="40" y="120" width="160" height="40" as="geometry" />
        </mxCell>
        <mxCell id="ClCTwTJOBFiZKTtQUj_5-25" style="edgeStyle=orthogonalEdgeStyle;rounded=0;orthogonalLoop=1;jettySize=auto;html=1;entryX=0.5;entryY=1;entryDx=0;entryDy=0;fontSize=12;startSize=8;endSize=8;endArrow=classicThin;endFill=1;startArrow=classicThin;startFill=1;" edge="1" parent="1" source="ClCTwTJOBFiZKTtQUj_5-37" target="ClCTwTJOBFiZKTtQUj_5-13">
          <mxGeometry relative="1" as="geometry">
            <Array as="points">
              <mxPoint x="800" y="320" />
            </Array>
          </mxGeometry>
        </mxCell>
        <mxCell id="ClCTwTJOBFiZKTtQUj_5-26" style="edgeStyle=orthogonalEdgeStyle;rounded=0;orthogonalLoop=1;jettySize=auto;html=1;entryX=0.5;entryY=1;entryDx=0;entryDy=0;fontSize=12;startSize=8;endSize=8;endArrow=classicThin;endFill=1;startArrow=classicThin;startFill=1;exitX=0;exitY=0.5;exitDx=0;exitDy=0;" edge="1" parent="1" source="ClCTwTJOBFiZKTtQUj_5-33" target="ClCTwTJOBFiZKTtQUj_5-13">
          <mxGeometry relative="1" as="geometry">
            <Array as="points">
              <mxPoint x="800" y="470" />
            </Array>
          </mxGeometry>
        </mxCell>
        <mxCell id="ClCTwTJOBFiZKTtQUj_5-27" style="edgeStyle=orthogonalEdgeStyle;rounded=0;orthogonalLoop=1;jettySize=auto;html=1;exitX=0;exitY=0.5;exitDx=0;exitDy=0;entryX=0;entryY=0.5;entryDx=0;entryDy=0;" edge="1" parent="1" source="ClCTwTJOBFiZKTtQUj_5-33" target="ClCTwTJOBFiZKTtQUj_5-33">
          <mxGeometry relative="1" as="geometry" />
        </mxCell>
        <mxCell id="ClCTwTJOBFiZKTtQUj_5-28" value="&lt;div style=&quot;font-size: 13px;&quot;&gt;&lt;div style=&quot;color: rgb(204, 204, 204); font-family: &amp;quot;Droid Sans Mono&amp;quot;, &amp;quot;monospace&amp;quot;, monospace; font-weight: normal; line-height: 19px;&quot;&gt;&lt;div&gt;&lt;pre&gt;&lt;font style=&quot;font-size: 12px;&quot; color=&quot;#000000&quot;&gt;Spotify_RequestDataAccess()&lt;/font&gt;&lt;/pre&gt;&lt;/div&gt;&lt;/div&gt;&lt;/div&gt;" style="rounded=0;whiteSpace=wrap;html=1;labelBackgroundColor=none;align=left;spacingLeft=4;fillColor=none;" vertex="1" parent="1">
          <mxGeometry x="840" y="500" width="200" height="40" as="geometry" />
        </mxCell>
        <mxCell id="ClCTwTJOBFiZKTtQUj_5-29" style="edgeStyle=orthogonalEdgeStyle;rounded=0;orthogonalLoop=1;jettySize=auto;html=1;entryX=0.5;entryY=1;entryDx=0;entryDy=0;fontSize=12;startSize=8;endSize=8;endArrow=classicThin;endFill=1;startArrow=classicThin;startFill=1;exitX=0;exitY=0.5;exitDx=0;exitDy=0;" edge="1" parent="1" source="ClCTwTJOBFiZKTtQUj_5-31" target="ClCTwTJOBFiZKTtQUj_5-13">
          <mxGeometry relative="1" as="geometry">
            <Array as="points">
              <mxPoint x="840" y="270" />
              <mxPoint x="800" y="270" />
            </Array>
          </mxGeometry>
        </mxCell>
        <mxCell id="ClCTwTJOBFiZKTtQUj_5-30" style="edgeStyle=orthogonalEdgeStyle;rounded=0;orthogonalLoop=1;jettySize=auto;html=1;dashed=1;dashPattern=12 12;" edge="1" parent="1" source="ClCTwTJOBFiZKTtQUj_5-31">
          <mxGeometry relative="1" as="geometry">
            <mxPoint x="1160" y="270" as="targetPoint" />
          </mxGeometry>
        </mxCell>
        <mxCell id="ClCTwTJOBFiZKTtQUj_5-31" value="&lt;div style=&quot;font-size: 13px;&quot;&gt;&lt;div style=&quot;color: rgb(204, 204, 204); font-family: &amp;quot;Droid Sans Mono&amp;quot;, &amp;quot;monospace&amp;quot;, monospace; font-weight: normal; line-height: 19px;&quot;&gt;&lt;div&gt;&lt;pre&gt;&lt;font style=&quot;font-size: 12px;&quot; color=&quot;#000000&quot;&gt;Spotify_IsConnected()&lt;/font&gt;&lt;/pre&gt;&lt;/div&gt;&lt;/div&gt;&lt;/div&gt;" style="rounded=0;whiteSpace=wrap;html=1;labelBackgroundColor=none;align=left;spacingLeft=4;fillColor=none;" vertex="1" parent="1">
          <mxGeometry x="840" y="250" width="160" height="40" as="geometry" />
        </mxCell>
        <mxCell id="ClCTwTJOBFiZKTtQUj_5-32" style="edgeStyle=orthogonalEdgeStyle;rounded=0;orthogonalLoop=1;jettySize=auto;html=1;entryX=0.5;entryY=1;entryDx=0;entryDy=0;fontSize=12;startSize=8;endSize=8;endArrow=classicThin;endFill=1;startArrow=classicThin;startFill=1;exitX=0;exitY=0.5;exitDx=0;exitDy=0;" edge="1" parent="1" source="ClCTwTJOBFiZKTtQUj_5-28" target="ClCTwTJOBFiZKTtQUj_5-13">
          <mxGeometry relative="1" as="geometry">
            <Array as="points">
              <mxPoint x="800" y="520" />
            </Array>
          </mxGeometry>
        </mxCell>
        <mxCell id="ClCTwTJOBFiZKTtQUj_5-33" value="&lt;div style=&quot;font-size: 13px;&quot;&gt;&lt;div style=&quot;color: rgb(204, 204, 204); font-family: &amp;quot;Droid Sans Mono&amp;quot;, &amp;quot;monospace&amp;quot;, monospace; font-weight: normal; line-height: 19px;&quot;&gt;&lt;div&gt;&lt;pre&gt;&lt;font style=&quot;font-size: 12px;&quot; color=&quot;#000000&quot;&gt;Spotify_HttpsCallbackHandler()&lt;/font&gt;&lt;/pre&gt;&lt;/div&gt;&lt;/div&gt;&lt;/div&gt;" style="rounded=0;whiteSpace=wrap;html=1;labelBackgroundColor=none;align=left;spacingLeft=4;fillColor=none;" vertex="1" parent="1">
          <mxGeometry x="840" y="450" width="240" height="40" as="geometry" />
        </mxCell>
        <mxCell id="ClCTwTJOBFiZKTtQUj_5-34" style="edgeStyle=orthogonalEdgeStyle;rounded=0;orthogonalLoop=1;jettySize=auto;html=1;dashed=1;dashPattern=12 12;" edge="1" parent="1" source="ClCTwTJOBFiZKTtQUj_5-35">
          <mxGeometry relative="1" as="geometry">
            <mxPoint x="1160" y="219" as="targetPoint" />
          </mxGeometry>
        </mxCell>
        <mxCell id="ClCTwTJOBFiZKTtQUj_5-35" value="&lt;div style=&quot;font-size: 13px;&quot;&gt;&lt;div style=&quot;color: rgb(204, 204, 204); font-family: &amp;quot;Droid Sans Mono&amp;quot;, &amp;quot;monospace&amp;quot;, monospace; font-weight: normal; line-height: 19px;&quot;&gt;&lt;div&gt;&lt;pre&gt;&lt;font style=&quot;font-size: 12px;&quot; color=&quot;#000000&quot;&gt;Spotify_TaskInit()&lt;/font&gt;&lt;/pre&gt;&lt;/div&gt;&lt;/div&gt;&lt;/div&gt;" style="rounded=0;whiteSpace=wrap;html=1;labelBackgroundColor=none;align=left;spacingLeft=4;fillColor=none;" vertex="1" parent="1">
          <mxGeometry x="840" y="199" width="160" height="40" as="geometry" />
        </mxCell>
        <mxCell id="ClCTwTJOBFiZKTtQUj_5-36" style="edgeStyle=orthogonalEdgeStyle;rounded=0;orthogonalLoop=1;jettySize=auto;html=1;dashed=1;dashPattern=12 12;" edge="1" parent="1" source="ClCTwTJOBFiZKTtQUj_5-37">
          <mxGeometry relative="1" as="geometry">
            <mxPoint x="1160" y="319.9999999999999" as="targetPoint" />
          </mxGeometry>
        </mxCell>
        <mxCell id="ClCTwTJOBFiZKTtQUj_5-37" value="&lt;div style=&quot;font-size: 13px;&quot;&gt;&lt;div style=&quot;color: rgb(204, 204, 204); font-family: &amp;quot;Droid Sans Mono&amp;quot;, &amp;quot;monospace&amp;quot;, monospace; font-weight: normal; line-height: 19px;&quot;&gt;&lt;div&gt;&lt;pre&gt;&lt;font style=&quot;font-size: 12px;&quot; color=&quot;#000000&quot;&gt;Spotify_PlaybackCommand()&lt;/font&gt;&lt;/pre&gt;&lt;/div&gt;&lt;/div&gt;&lt;/div&gt;" style="rounded=0;whiteSpace=wrap;html=1;labelBackgroundColor=none;align=left;spacingLeft=4;fillColor=none;" vertex="1" parent="1">
          <mxGeometry x="840" y="300" width="200" height="40" as="geometry" />
        </mxCell>
        <mxCell id="ClCTwTJOBFiZKTtQUj_5-38" value="&lt;pre style=&quot;font-size: 12px;&quot;&gt;Private Functions &amp;amp; Structure&lt;/pre&gt;" style="text;whiteSpace=wrap;html=1;fontSize=12;verticalAlign=middle;fontColor=#6E6E6E;align=center;strokeColor=default;dashed=1;" vertex="1" parent="1">
          <mxGeometry x="30" y="80" width="340" height="30" as="geometry" />
        </mxCell>
        <mxCell id="ClCTwTJOBFiZKTtQUj_5-39" value="&lt;pre style=&quot;font-size: 12px;&quot;&gt;Public Functions &amp;amp; Structure&lt;/pre&gt;" style="text;whiteSpace=wrap;html=1;fontSize=12;verticalAlign=middle;fontColor=#6E6E6E;align=center;strokeColor=default;dashed=1;" vertex="1" parent="1">
          <mxGeometry x="710" y="79" width="380" height="30" as="geometry" />
        </mxCell>
        <mxCell id="ClCTwTJOBFiZKTtQUj_5-40" value="&lt;div style=&quot;font-size: 13px;&quot;&gt;&lt;div style=&quot;color: rgb(204, 204, 204); font-family: &amp;quot;Droid Sans Mono&amp;quot;, &amp;quot;monospace&amp;quot;, monospace; font-weight: normal; line-height: 19px;&quot;&gt;&lt;div&gt;&lt;pre&gt;&lt;font style=&quot;font-size: 12px;&quot; color=&quot;#000000&quot;&gt;StartWebServer()&lt;/font&gt;&lt;/pre&gt;&lt;/div&gt;&lt;/div&gt;&lt;/div&gt;" style="rounded=0;whiteSpace=wrap;html=1;labelBackgroundColor=none;align=left;spacingLeft=4;fillColor=none;" vertex="1" parent="1">
          <mxGeometry x="400" y="120" width="160" height="40" as="geometry" />
        </mxCell>
        <mxCell id="ClCTwTJOBFiZKTtQUj_5-41" value="&lt;div style=&quot;font-size: 13px;&quot;&gt;&lt;div style=&quot;color: rgb(204, 204, 204); font-family: &amp;quot;Droid Sans Mono&amp;quot;, &amp;quot;monospace&amp;quot;, monospace; font-weight: normal; line-height: 19px;&quot;&gt;&lt;div&gt;&lt;pre&gt;&lt;font style=&quot;font-size: 12px;&quot; color=&quot;#000000&quot;&gt;StopWebServer()&lt;/font&gt;&lt;/pre&gt;&lt;/div&gt;&lt;/div&gt;&lt;/div&gt;" style="rounded=0;whiteSpace=wrap;html=1;labelBackgroundColor=none;align=left;spacingLeft=4;fillColor=none;" vertex="1" parent="1">
          <mxGeometry x="400" y="170" width="160" height="40" as="geometry" />
        </mxCell>
        <mxCell id="ClCTwTJOBFiZKTtQUj_5-42" value="&lt;div style=&quot;font-size: 13px;&quot;&gt;&lt;div style=&quot;color: rgb(204, 204, 204); font-family: &amp;quot;Droid Sans Mono&amp;quot;, &amp;quot;monospace&amp;quot;, monospace; font-weight: normal; line-height: 19px;&quot;&gt;&lt;div&gt;&lt;pre&gt;&lt;font style=&quot;font-size: 12px;&quot; color=&quot;#000000&quot;&gt;HttpLocalServerDisconnectHandler()&lt;/font&gt;&lt;/pre&gt;&lt;/div&gt;&lt;/div&gt;&lt;/div&gt;" style="rounded=0;whiteSpace=wrap;html=1;labelBackgroundColor=none;align=left;spacingLeft=4;fillColor=none;" vertex="1" parent="1">
          <mxGeometry x="400" y="220" width="280" height="40" as="geometry" />
        </mxCell>
        <mxCell id="ClCTwTJOBFiZKTtQUj_5-43" value="&lt;div style=&quot;font-size: 13px;&quot;&gt;&lt;div style=&quot;color: rgb(204, 204, 204); font-family: &amp;quot;Droid Sans Mono&amp;quot;, &amp;quot;monospace&amp;quot;, monospace; font-weight: normal; line-height: 19px;&quot;&gt;&lt;div&gt;&lt;pre&gt;&lt;font style=&quot;font-size: 12px;&quot; color=&quot;#000000&quot;&gt;HttpLocalServerConnectHandler()&lt;/font&gt;&lt;/pre&gt;&lt;/div&gt;&lt;/div&gt;&lt;/div&gt;" style="rounded=0;whiteSpace=wrap;html=1;labelBackgroundColor=none;align=left;spacingLeft=4;fillColor=none;" vertex="1" parent="1">
          <mxGeometry x="400" y="267" width="240" height="40" as="geometry" />
        </mxCell>
        <mxCell id="ClCTwTJOBFiZKTtQUj_5-44" value="&lt;div style=&quot;font-size: 13px;&quot;&gt;&lt;div style=&quot;color: rgb(204, 204, 204); font-family: &amp;quot;Droid Sans Mono&amp;quot;, &amp;quot;monospace&amp;quot;, monospace; font-weight: normal; line-height: 19px;&quot;&gt;&lt;div&gt;&lt;pre&gt;&lt;font style=&quot;font-size: 12px;&quot; color=&quot;#000000&quot;&gt;StartMDNSService()&lt;/font&gt;&lt;/pre&gt;&lt;/div&gt;&lt;/div&gt;&lt;/div&gt;" style="rounded=0;whiteSpace=wrap;html=1;labelBackgroundColor=none;align=left;spacingLeft=4;fillColor=none;" vertex="1" parent="1">
          <mxGeometry x="400" y="320" width="160" height="40" as="geometry" />
        </mxCell>
        <mxCell id="ClCTwTJOBFiZKTtQUj_5-46" value="&lt;pre style=&quot;font-size: 12px;&quot;&gt;HTTP sever Functions&lt;/pre&gt;" style="text;whiteSpace=wrap;html=1;fontSize=12;verticalAlign=middle;fontColor=#6E6E6E;align=center;strokeColor=default;dashed=1;" vertex="1" parent="1">
          <mxGeometry x="390" y="80" width="300" height="30" as="geometry" />
        </mxCell>
        <mxCell id="ClCTwTJOBFiZKTtQUj_5-47" value="&lt;div style=&quot;font-size: 13px;&quot;&gt;&lt;div style=&quot;color: rgb(204, 204, 204); font-family: &amp;quot;Droid Sans Mono&amp;quot;, &amp;quot;monospace&amp;quot;, monospace; font-weight: normal; line-height: 19px;&quot;&gt;&lt;div&gt;&lt;pre&gt;&lt;font style=&quot;font-size: 12px;&quot; color=&quot;#000000&quot;&gt;Spotify_MainTask()&lt;/font&gt;&lt;/pre&gt;&lt;/div&gt;&lt;/div&gt;&lt;/div&gt;" style="rounded=0;whiteSpace=wrap;html=1;labelBackgroundColor=none;align=left;spacingLeft=4;fillColor=none;" vertex="1" parent="1">
          <mxGeometry x="840" y="549" width="160" height="40" as="geometry" />
        </mxCell>
        <mxCell id="ClCTwTJOBFiZKTtQUj_5-48" value="&lt;div style=&quot;font-size: 13px;&quot;&gt;&lt;div style=&quot;color: rgb(204, 204, 204); font-family: &amp;quot;Droid Sans Mono&amp;quot;, &amp;quot;monospace&amp;quot;, monospace; font-weight: normal; line-height: 19px;&quot;&gt;&lt;div&gt;&lt;pre&gt;&lt;font style=&quot;font-size: 12px;&quot; color=&quot;#000000&quot;&gt;Spotify_IsTokenValid()&lt;/font&gt;&lt;/pre&gt;&lt;/div&gt;&lt;/div&gt;&lt;/div&gt;" style="rounded=0;whiteSpace=wrap;html=1;labelBackgroundColor=none;align=left;spacingLeft=4;fillColor=none;" vertex="1" parent="1">
          <mxGeometry x="840" y="650" width="200" height="40" as="geometry" />
        </mxCell>
        <mxCell id="ClCTwTJOBFiZKTtQUj_5-49" value="&lt;div style=&quot;font-size: 13px;&quot;&gt;&lt;div style=&quot;color: rgb(204, 204, 204); font-family: &amp;quot;Droid Sans Mono&amp;quot;, &amp;quot;monospace&amp;quot;, monospace; font-weight: normal; line-height: 19px;&quot;&gt;&lt;div&gt;&lt;pre&gt;&lt;font style=&quot;font-size: 12px;&quot; color=&quot;#000000&quot;&gt;Spotify_SendCommand()&lt;/font&gt;&lt;/pre&gt;&lt;/div&gt;&lt;/div&gt;&lt;/div&gt;" style="rounded=0;whiteSpace=wrap;html=1;labelBackgroundColor=none;align=left;spacingLeft=4;fillColor=none;" vertex="1" parent="1">
          <mxGeometry x="840" y="700" width="200" height="40" as="geometry" />
        </mxCell>
      </root>
    </mxGraphModel>
  </diagram>
</mxfile>
